<svg version="1.1" id="Layer_1" xmlns="http://www.w3.org/2000/svg" xmlns:xlink="http://www.w3.org/1999/xlink" x="0px" y="0px"
	 width="100%" viewBox="0 0 624 496" enable-background="new 0 0 624 496" xml:space="preserve">
<path fill="#000000" opacity="1.000000" stroke="none" 
	d="
M285.862946,434.588074 
	C295.701813,431.522949 305.133881,432.144745 314.163269,435.609833 
	C333.754700,443.128265 353.915985,446.684662 374.798004,444.555176 
	C391.807770,442.820618 408.155945,438.432770 422.935303,429.361969 
	C424.310730,428.517761 425.487000,427.207611 427.844238,427.563293 
	C426.870972,430.560883 424.187073,431.857880 422.312622,433.699829 
	C404.798950,450.909821 384.207520,462.071350 359.545288,464.798615 
	C343.225922,466.603271 327.292877,464.625977 312.055389,458.401398 
	C303.485413,454.900574 295.023987,454.169617 286.365692,457.701050 
	C243.187683,475.311737 199.200531,461.567596 169.537430,429.265472 
	C143.316574,400.711853 128.398300,366.660156 120.674873,329.095825 
	C116.711044,309.816956 114.480492,290.299225 114.832970,270.650604 
	C115.246552,247.595444 118.314499,224.873734 127.820808,203.517853 
	C140.972656,173.972275 163.295181,156.319870 195.563187,151.783524 
	C215.874496,148.928085 235.201050,153.705124 254.402069,159.484573 
	C265.378235,162.788376 276.208832,166.651917 287.529968,168.694000 
	C300.888458,171.103561 313.971283,169.604355 326.970428,165.999954 
	C343.777771,161.339615 360.398956,155.853210 377.686493,153.152374 
	C396.756866,150.173035 415.565094,150.280853 433.041107,160.098282 
	C451.296051,170.353241 461.560150,187.080093 469.459442,205.651978 
	C469.621094,206.032043 469.479767,206.540970 469.479767,206.990921 
	C468.249390,207.032059 467.912842,206.230865 467.467438,205.552475 
	C455.552917,187.405899 437.699402,178.995850 417.160370,175.392105 
	C392.330933,171.035538 368.223999,174.920425 344.461639,182.423325 
	C328.622528,187.424469 312.881470,192.954712 295.842712,192.370453 
	C280.812531,191.855057 266.832886,186.935074 252.685150,182.661179 
	C239.633713,178.718460 226.639328,173.811920 212.936951,173.580490 
	C186.227570,173.129425 162.126297,181.980743 148.240738,213.603958 
	C141.611160,228.702271 139.038788,244.668594 138.133423,261.113403 
	C136.345398,293.590485 140.662979,325.166656 151.737640,355.642059 
	C161.359940,382.120789 175.172501,406.147156 197.617844,424.116333 
	C221.334778,443.103546 247.671066,447.665161 276.440613,437.599670 
	C279.421997,436.556610 282.447083,435.638367 285.862946,434.588074 
z"/>
<path fill="#000000" opacity="1.000000" stroke="none" 
	d="
M346.720703,362.634552 
	C346.190613,344.148346 354.116547,328.711761 362.218842,313.086884 
	C357.981323,312.149414 356.400452,314.201599 354.937531,317.426331 
	C350.045349,328.210205 340.240021,332.776672 330.118805,329.342468 
	C325.217224,327.679291 322.039337,324.164642 319.963867,319.616913 
	C319.061615,317.639923 318.150940,316.426117 315.662842,316.276550 
	C303.941437,315.571960 302.967102,314.449402 302.589569,302.600983 
	C302.575134,302.148163 302.280975,301.704285 302.031616,301.022217 
	C299.492371,301.472107 298.613892,303.554932 297.562317,305.324310 
	C294.220337,310.947479 292.031982,317.033081 290.318878,323.335052 
	C288.122955,331.412964 283.725372,332.600922 277.787292,326.623322 
	C275.868500,324.691742 274.358673,326.031311 272.824310,326.530060 
	C262.230988,329.973114 251.468643,331.674225 240.408051,329.539429 
	C220.998871,325.793365 211.282410,314.087799 211.765259,294.216583 
	C212.192322,276.641571 218.054199,261.474060 234.119247,252.181839 
	C242.329956,247.432693 251.382462,246.103622 260.632080,248.768768 
	C271.650208,251.943466 277.280975,265.080505 272.292755,275.406708 
	C270.417236,279.289246 266.430664,281.295227 262.874542,279.944153 
	C258.922211,278.442596 258.864929,275.392090 259.439026,271.713898 
	C261.169373,260.627289 255.242599,255.983902 244.636383,260.232147 
	C233.217133,264.805969 229.214157,274.670227 227.377228,285.824097 
	C227.054321,287.784729 227.140945,289.811768 227.020874,291.807098 
	C225.753571,312.867859 240.219147,318.753326 255.922394,317.456573 
	C260.689423,317.062958 265.348297,315.601715 270.018524,314.375244 
	C274.732422,313.137268 276.487274,310.319427 276.617065,305.828613 
	C276.767365,300.628784 278.163849,295.656708 279.519562,290.674652 
	C280.290710,287.840851 282.023285,285.949951 284.756805,285.143005 
	C286.982971,284.485809 289.503052,283.903870 291.393738,285.678314 
	C293.035828,287.219482 292.245636,289.416412 291.853516,291.363586 
	C291.198914,294.614380 290.520935,297.860443 289.562958,302.517334 
	C291.895935,298.080597 293.879150,295.004883 296.294708,292.254120 
	C298.391174,289.866791 300.666931,287.696625 303.634521,286.352081 
	C307.065521,284.797638 310.619324,283.433868 314.045868,285.846191 
	C317.526459,288.296478 316.351105,292.158813 316.071716,295.551086 
	C315.825378,298.541870 314.380432,301.542694 316.184021,304.518097 
	C319.314178,303.890381 318.910095,301.370270 319.565491,299.695648 
	C322.942413,291.067444 328.677155,285.369781 338.269867,284.716064 
	C347.235199,284.105042 352.963318,288.169708 356.221558,296.729004 
	C357.005981,298.789642 356.632935,302.194733 360.651489,301.332397 
	C364.336029,300.541748 363.915802,297.713135 363.949066,295.055511 
	C364.039276,287.846954 365.654816,285.501923 370.615204,284.704468 
	C374.712952,284.045685 376.752472,286.137451 377.684875,290.150330 
	C378.901398,289.130920 379.636200,288.494690 380.392365,287.884918 
	C384.312805,284.723511 388.675995,283.600891 393.448944,285.513092 
	C398.484558,287.530609 400.617188,291.814148 401.264282,296.847198 
	C402.223785,304.310242 400.678864,311.364899 396.554901,317.774567 
	C399.510651,319.525726 401.658508,318.609344 403.481598,317.134338 
	C405.931030,315.152618 408.209656,312.945435 410.444122,310.717194 
	C411.950317,309.215179 413.486542,307.911407 415.669983,309.012177 
	C417.686401,310.028687 417.305481,312.084656 417.307281,313.892273 
	C417.307953,314.554413 417.269989,315.237305 417.109924,315.875732 
	C414.752563,325.281006 398.888824,333.363129 390.242371,329.031342 
	C386.463165,327.138000 383.945435,329.533112 380.840546,329.733643 
	C375.880646,330.054016 376.366486,333.560883 375.942505,336.804321 
	C374.690796,346.380219 373.370300,355.951019 369.326599,364.871368 
	C367.480347,368.944122 364.908142,372.401520 360.503998,373.891876 
	C353.599396,376.228363 348.691711,372.312256 346.720703,362.634552 
M333.025452,316.343842 
	C335.431549,319.306122 338.358429,319.680725 341.304718,317.480499 
	C343.433472,315.890778 345.964508,313.123871 344.250549,310.838135 
	C341.001434,306.505096 339.331024,301.710968 338.355316,296.521332 
	C331.545044,299.102173 329.284180,307.344147 333.025452,316.343842 
M388.127014,305.633820 
	C388.298553,304.324829 388.595764,303.017487 388.612732,301.706512 
	C388.639221,299.654022 388.270233,297.557434 386.183746,296.634399 
	C383.864136,295.608185 381.970947,296.879242 380.458588,298.534760 
	C379.354248,299.743652 377.826569,301.090942 377.644104,302.523773 
	C376.942169,308.035431 376.895538,313.598663 377.660645,319.277985 
	C383.165222,317.244232 385.792603,313.815094 388.127014,305.633820 
M356.288391,356.473175 
	C356.667572,358.812042 355.233917,361.782501 359.023376,363.612152 
	C363.275940,352.838348 362.862396,341.860535 363.367371,330.996124 
	C359.768890,338.877686 357.098663,346.978149 356.288391,356.473175 
z"/>
<path fill="#000000" opacity="1.000000" stroke="none" 
	d="
M437.011902,306.822632 
	C436.015015,312.650818 435.161499,318.070435 434.230743,323.476715 
	C433.329163,328.713654 430.988617,330.621124 426.186035,330.319244 
	C421.083374,329.998474 419.742218,326.476349 419.915985,322.353882 
	C420.351196,312.027161 422.858276,301.962463 424.241608,291.750519 
	C425.335480,283.675385 426.510468,275.610748 427.533813,267.526825 
	C427.825562,265.222229 428.074707,262.534210 425.796448,261.126129 
	C423.171722,259.503876 420.946777,261.568695 419.105530,263.063690 
	C416.667938,265.042847 414.566864,267.453827 412.427673,269.777313 
	C410.842773,271.498779 409.453491,273.806458 406.687958,272.265503 
	C404.031067,270.785004 403.997650,268.079681 404.834473,265.627045 
	C406.676697,260.227814 410.645660,256.380798 414.949799,252.885345 
	C417.160736,251.089798 419.677734,249.775253 422.363708,248.808655 
	C433.181610,244.915634 440.200867,249.744629 440.342743,261.180206 
	C440.362976,262.810852 440.345490,264.441986 440.345490,267.324524 
	C442.673492,263.740051 444.302521,261.136261 446.026550,258.596985 
	C449.733887,253.136475 454.756592,249.410278 461.201385,247.933777 
	C469.799774,245.963928 476.230316,250.057281 478.483917,258.760803 
	C479.022034,260.838959 479.252258,262.996826 479.761566,265.902435 
	C481.162537,263.635956 482.258698,261.769531 483.443970,259.961548 
	C488.156708,252.772888 494.227997,247.732986 503.335022,247.670273 
	C512.564636,247.606720 517.769043,252.855072 518.277405,262.714172 
	C518.695557,270.824738 516.218323,278.513367 514.725281,286.338593 
	C513.540710,292.547302 512.092285,298.705444 510.880951,304.909454 
	C510.501404,306.853394 510.340851,308.876556 510.377106,310.858032 
	C510.465424,315.687317 513.067688,318.622162 517.017517,318.597137 
	C521.380737,318.569489 525.501770,314.864410 525.662415,310.688263 
	C525.758667,308.184052 525.668884,305.669006 526.848267,303.359161 
	C528.595093,299.937988 531.380127,298.657074 535.129333,299.430054 
	C538.870667,300.201385 539.956848,302.831024 539.404053,306.159943 
	C537.756836,316.079895 543.179871,318.398712 551.514465,318.782196 
	C556.498474,319.011505 561.522095,319.353455 566.220764,317.034882 
	C573.135498,313.622803 573.967346,306.006226 567.884888,301.299774 
	C564.274414,298.506073 559.908203,297.193115 555.789368,295.422852 
	C551.506348,293.582062 547.161255,291.916412 543.151794,289.471680 
	C529.020447,280.855286 528.637024,261.040131 542.968994,252.795776 
	C555.262085,245.724213 568.382324,245.282379 581.172180,251.880905 
	C589.014099,255.926697 592.251038,266.379425 588.659424,274.378937 
	C587.159180,277.720398 584.652039,279.955109 580.800415,279.053406 
	C577.004639,278.164795 575.610168,275.270416 575.797241,271.464905 
	C576.271973,261.803406 574.141785,259.460571 564.384033,259.150757 
	C560.742920,259.035156 557.064148,258.926270 553.570740,260.458466 
	C549.753052,262.132843 547.229675,264.871887 546.801514,269.038422 
	C546.388672,273.055328 548.420227,276.060760 551.647217,278.287384 
	C555.800171,281.152863 560.589111,282.709381 565.129883,284.778076 
	C568.764404,286.433868 572.532349,287.874176 575.965027,289.882080 
	C589.863342,298.011658 590.103638,317.226166 576.007568,325.059357 
	C562.339661,332.654633 547.961792,332.690613 533.937744,325.595795 
	C531.043091,324.131439 529.338562,323.623047 526.588196,325.886139 
	C521.437683,330.124115 515.192627,331.384613 508.686584,329.920807 
	C498.693542,327.672424 493.795685,318.559052 496.056213,306.213501 
	C498.211945,294.440430 500.760040,282.739563 503.068634,270.993774 
	C503.417694,269.217743 503.711334,267.332306 503.494873,265.562988 
	C502.950562,261.113617 499.557129,259.453339 495.538483,261.522461 
	C491.191315,263.760681 488.476837,267.538025 486.298920,271.737000 
	C479.370239,285.095459 476.493866,299.607178 474.270813,314.301361 
	C473.773499,317.588684 473.443115,320.923553 472.637756,324.136749 
	C471.421783,328.988251 468.517242,330.853119 463.897095,330.280884 
	C458.974487,329.671265 458.295105,326.028412 458.432861,322.198303 
	C458.805267,311.843475 461.482147,301.818146 463.112335,291.641479 
	C464.269501,284.417511 465.511475,277.204559 466.500427,269.957306 
	C466.956024,266.618378 467.011505,262.958191 463.490662,261.101013 
	C459.976044,259.247131 457.032776,261.513794 454.437469,263.574646 
	C449.996704,267.100891 447.525269,272.081390 445.370911,277.158051 
	C441.385864,286.548584 438.741028,296.339264 437.011902,306.822632 
z"/>
<path fill="#000000" opacity="1.000000" stroke="none" 
	d="
M333.482758,93.463272 
	C325.361389,104.423363 319.492279,116.129135 315.502808,128.794022 
	C311.556244,141.322830 311.528076,154.462875 310.697693,167.126175 
	C306.786011,167.697601 306.063110,165.522964 305.134796,163.872711 
	C300.898438,156.341721 298.998749,148.293716 298.553986,139.582443 
	C297.102295,111.147949 285.239716,87.780815 263.134918,69.714058 
	C262.756042,69.404404 262.285217,69.200623 261.839233,68.984688 
	C261.735260,68.934349 261.557465,69.036499 260.785461,69.208176 
	C269.171875,76.784309 276.303833,84.975220 281.926605,94.450058 
	C287.324585,103.546150 290.969238,113.324936 294.309570,123.291924 
	C295.695526,127.427345 294.064178,128.737320 290.380402,129.169235 
	C278.377441,130.576523 268.013885,127.400124 259.457855,118.600243 
	C250.617035,109.507416 244.697311,98.474831 238.705978,87.528946 
	C231.128098,73.684532 221.510437,61.398502 211.049026,49.696445 
	C210.162231,48.704483 209.255722,47.724274 208.451187,46.667915 
	C208.180954,46.313072 208.199310,45.738441 207.804825,44.091217 
	C229.841492,43.485435 250.737930,45.568886 269.276367,58.336334 
	C288.017059,71.243073 295.784882,90.963394 302.075409,112.914665 
	C305.136688,105.511147 307.492035,99.019142 310.687866,92.908226 
	C315.647858,83.423866 321.503723,74.536758 328.108704,66.135605 
	C328.908081,65.118813 329.906921,63.874870 331.039734,63.565701 
	C339.171967,61.346172 347.498077,60.900261 355.732422,62.545685 
	C359.875153,63.373512 360.183777,66.186058 356.460541,69.389893 
	C348.090912,76.591934 340.405853,84.405197 333.482758,93.463272 
z"/>
</svg>